<?xml version="1.0" encoding="UTF-8"?>
<svg width="24px" height="24px" viewBox="0 0 24 24" version="1.1" xmlns="http://www.w3.org/2000/svg" xmlns:xlink="http://www.w3.org/1999/xlink">
    <title>icon_obs_expand_24</title>
    <g id="icon_obs_expand_24" stroke="none" stroke-width="1" fill="none" fill-rule="evenodd">
        <path d="M21,2 C21.5522847,2 22,2.44771525 22,3 L22,21 C22,21.5522847 21.5522847,22 21,22 L3,22 C2.44771525,22 2,21.5522847 2,21 L2,3 C2,2.44771525 2.44771525,2 3,2 L21,2 Z M20.5,3.5 L3.5,3.5 L3.5,20.5 L20.5,20.5 L20.5,3.5 Z M6.51992245,5.45926227 L6.527,5.467 L8.77191163,5.46700851 C8.93759706,5.46700851 9.07191163,5.60132308 9.07191163,5.76700851 C9.07191163,5.84657345 9.04030458,5.92287963 8.98404367,5.97914054 L8.011,6.951 L17.042,15.982 L17.9920908,15.0319826 C18.1092481,14.9148254 18.2991976,14.9148254 18.4163549,15.0319826 C18.4726158,15.0882436 18.5042228,15.1645497 18.5042228,15.2441147 L18.504,17.444 L18.5407377,17.4800776 L18.504,17.516 L18.5042228,18.0198506 C18.5042228,18.295993 18.2803652,18.5198506 18.0042228,18.5198506 L17.501,18.519 L17.4800776,18.5407377 L17.459,18.519 L15.2284869,18.5198506 C15.0628015,18.5198506 14.9284869,18.385536 14.9284869,18.2198506 C14.9284869,18.1402857 14.960094,18.0639795 15.0163549,18.0077186 L15.982,17.042 L6.951,8.011 L6.00830774,8.95487647 C5.89115045,9.07203376 5.70120096,9.07203376 5.58404367,8.95487647 C5.52778275,8.89861556 5.4961757,8.82230938 5.4961757,8.74274444 L5.496,6.556 L5.45926227,6.51992245 L5.496,6.482 L5.4961757,5.96700851 C5.4961757,5.69086613 5.72003333,5.46700851 5.9961757,5.46700851 L6.511,5.467 L6.51992245,5.45926227 Z" id="形状" fill="#51565d" fill-rule="nonzero"></path>
    </g>
</svg>