<?xml version="1.0" encoding="UTF-8"?>
<svg width="24px" height="24px" viewBox="0 0 24 24" version="1.1" xmlns="http://www.w3.org/2000/svg" xmlns:xlink="http://www.w3.org/1999/xlink">
    <title>icon_obs_location_24</title>
    <g id="icon_obs_location_24" stroke="none" stroke-width="1" fill="none" fill-rule="evenodd">
        <path d="M18.124637,17.1752478 L18.2261496,17.1852142 C20.4856741,17.5615471 21.75,18.3140252 21.75,19.6492469 C21.75,21.2754483 19.719793,22.2751373 16.3707649,22.6911205 L15.8005042,22.7550537 L15.2065527,22.8082216 L14.5896424,22.8506681 L13.9505052,22.8824375 L13.6228301,22.8943319 L13.6228301,22.8943319 L12.9517247,22.910168 L12.6084772,22.9141206 L12.6084772,22.9141206 L11.9137774,22.9142317 L11.2340395,22.9045717 C11.0104502,22.8997366 10.7898961,22.8932839 10.5725124,22.8852052 L9.93000773,22.8560839 L9.30733687,22.817159 L9.00369272,22.7940051 L9.00369272,22.7940051 L8.41229415,22.7402842 L7.84275813,22.6766385 C7.65664671,22.6537638 7.47431429,22.6292269 7.29589613,22.6030197 L6.77251965,22.5193791 C6.51683803,22.4750453 6.27026778,22.4269352 6.03326537,22.3750215 L5.57215289,22.2661145 L5.1373661,22.147016 C3.31150117,21.6087712 2.25,20.7821011 2.25,19.6492469 C2.25,18.3131296 3.51793512,17.5613484 5.78526589,17.185139 C6.1938926,17.1173372 6.58011425,17.3936303 6.64791609,17.802257 C6.71571793,18.2108837 6.43942479,18.5971054 6.03079808,18.6649072 C4.42075288,18.9320558 3.75,19.329757 3.75,19.6492469 C3.75,19.9503747 4.4507729,20.4186072 5.88659792,20.7856443 C7.47904553,21.1927184 9.72784126,21.4154369 12.2602219,21.4154369 C14.7585974,21.4154369 16.8832158,21.1901288 18.357219,20.7775606 C19.6487283,20.4160716 20.25,19.9696093 20.25,19.6492469 C20.25,19.3288615 19.5829468,18.9318571 17.9797132,18.6648321 C17.571128,18.5967806 17.2950709,18.2103902 17.3631225,17.801805 C17.425503,17.4272685 17.7553767,17.1640925 18.124637,17.1752478 Z M12.4029851,1.57089552 C14.3573954,1.57089552 16.1481487,2.28525259 17.6174185,3.66261746 C18.96329,4.92430276 19.7350746,6.75211348 19.7350746,8.61719182 C19.7350746,9.75775991 19.1424927,11.2416521 17.9819543,13.1851774 L17.7832766,13.5133741 L17.3971108,14.1292764 L17.1911914,14.4480476 L16.2174041,15.8983142 L15.7230085,16.6214504 L15.4211681,17.0556234 L14.863168,17.8377853 L14.4663207,18.374212 L14.0705871,18.8916305 L13.6602659,19.4116547 L13.5875677,19.4902847 C13.1986557,19.8548697 12.6225553,20.0708955 12.1343284,20.0708955 C11.6171449,20.0708955 11.2012008,19.9215374 10.8217843,19.6133279 L10.681089,19.4902847 L10.5699921,19.3591429 L10.3230145,19.0169923 L8.36365499,16.3742541 L7.95753826,15.8023799 L7.61387126,15.2908887 L7.08424996,14.4580484 C5.5083767,12.1749482 4.64895119,10.0142953 4.80646987,8.53763877 L4.8,8.61 L4.78907826,8.43019292 C4.73071109,6.91168934 5.35102015,5.35011011 6.50322002,4.08514122 L6.71204089,3.86505956 L6.91989495,3.66261746 C8.30753867,2.36177286 9.98193773,1.65231485 11.8101357,1.57750113 L12.1343284,1.57089552 L12.4029851,1.57089552 Z M12.4029851,3.07089552 L12.1343284,3.07089552 C10.5626192,3.07089552 9.13819841,3.63911733 7.94577669,4.75695136 C6.84893413,5.78518483 6.25665479,7.09555654 6.28639809,8.32191506 L6.29929297,8.55078336 L6.29800775,8.69674487 C6.19262285,9.68467406 6.865829,11.4316319 8.15690948,13.3681767 L8.33678061,13.6333726 L8.72172146,14.2418783 L9.12384525,14.8503673 L9.50287027,15.3892933 L11.3939794,17.9407508 L11.752,18.435 L11.7762519,18.4565866 C11.8423024,18.5094906 11.9008329,18.540061 11.9713893,18.5560527 L12.0466784,18.567472 L12.1343284,18.5708955 C12.2273289,18.5708955 12.3787173,18.5211027 12.4886088,18.4514481 L12.535,18.415 L12.7700836,18.1198424 L13.1969173,17.5660574 L13.622589,16.9930957 L13.9160019,16.5862957 L14.2243144,16.1497152 L14.9103039,15.1532005 L15.9388739,13.622432 L16.1331078,13.3216613 L16.4961019,12.7423183 L16.8250406,12.1927329 C17.7606648,10.5888051 18.2350746,9.38919379 18.2350746,8.61719182 C18.2350746,7.16180232 17.6311516,5.73153681 16.5915367,4.75695136 C15.4736414,3.70898196 14.1518406,3.14407017 12.6959338,3.07754983 L12.4029851,3.07089552 Z M12.2602219,6.82089552 C13.3647914,6.82089552 14.2602219,7.71632602 14.2602219,8.82089552 C14.2602219,9.92546502 13.3647914,10.8208955 12.2602219,10.8208955 C11.1556524,10.8208955 10.2602219,9.92546502 10.2602219,8.82089552 C10.2602219,7.71632602 11.1556524,6.82089552 12.2602219,6.82089552 Z" id="形状" fill="#ffffff" fill-rule="nonzero"></path>
    </g>
</svg>